<svg width="41" height="29" viewBox="0 0 41 29" fill="none" xmlns="http://www.w3.org/2000/svg">
<path d="M25.8451 19.9058C27.0753 21.904 28.4122 23.8187 31.2442 23.8187C33.6229 23.8187 34.8709 22.6365 34.8709 21.0009C34.8709 19.0436 33.5802 18.3485 30.9634 17.2089L29.5287 16.5973C25.3882 14.8409 22.6345 12.64 22.6345 7.99113C22.6345 3.70668 25.9145 0.446235 31.0398 0.446235C34.6896 0.446235 37.3118 1.71023 39.2033 5.02046L34.734 7.87735C33.7509 6.1209 32.6878 5.42935 31.0398 5.42935C29.358 5.42935 28.2931 6.49068 28.2931 7.87735C28.2931 9.59112 29.3598 10.2845 31.822 11.3458L33.2567 11.9573C38.1367 14.0356 40.8887 16.1582 40.8887 20.9298C40.8887 26.0711 36.8282 28.8889 31.3776 28.8889C26.046 28.8889 23.0185 26.2133 21.3331 22.9013L25.8451 19.9058ZM5.2478 20.0516C6.14735 21.6622 7.51446 22.9013 9.48069 22.9013C11.3616 22.9013 12.4442 22.1582 12.4442 19.2693V0.444458H18.3696V20.1796C18.3696 26.1653 14.8976 28.8889 9.82735 28.8889C5.24602 28.8889 1.93935 25.7849 0.591797 22.9013L5.2478 20.0516Z" fill="#000001"/>
</svg>
