<svg width="51" height="33" viewBox="0 0 51 33" fill="none" xmlns="http://www.w3.org/2000/svg">
<path fill-rule="evenodd" clip-rule="evenodd" d="M29.0051 23.734V30.747C30.1413 31.331 31.485 31.7695 33.0364 32.0615C34.5877 32.354 36.2228 32.5 37.9416 32.5C39.6168 32.5 41.2081 32.3395 42.7155 32.018C44.2235 31.6965 45.545 31.167 46.6815 30.429C47.8175 29.691 48.717 28.727 49.38 27.536C50.0425 26.3455 50.374 24.8735 50.374 23.1203C50.374 21.8493 50.1845 20.7353 49.806 19.7783C49.427 18.8214 48.881 17.9704 48.167 17.2252C47.4535 16.4801 46.5975 15.8117 45.6 15.22C44.602 14.6283 43.477 14.0694 42.224 13.5435C41.3064 13.1636 40.4834 12.7947 39.7551 12.4368C39.0268 12.0788 38.4077 11.7136 37.8979 11.341C37.3881 10.9684 36.9948 10.574 36.718 10.1576C36.4413 9.74125 36.3029 9.27005 36.3029 8.7441C36.3029 8.26195 36.4267 7.8273 36.6743 7.44015C36.922 7.053 37.2716 6.7206 37.7231 6.443C38.1747 6.16545 38.7282 5.94995 39.3837 5.79655C40.0392 5.6431 40.7675 5.5664 41.5686 5.5664C42.1515 5.5664 42.7665 5.61025 43.415 5.6979C44.063 5.78555 44.715 5.9207 45.3705 6.10335C46.026 6.28595 46.663 6.51605 47.2825 6.79365C47.9015 7.07125 48.473 7.39265 48.9975 7.7579V1.20535C47.934 0.796251 46.7725 0.493101 45.5125 0.295851C44.2525 0.0986008 42.807 0 41.1753 0C39.5148 0 37.9416 0.17895 36.4558 0.5369C34.9701 0.89485 33.6627 1.4537 32.5338 2.2134C31.4049 2.97315 30.5127 3.94105 29.8573 5.11715C29.2018 6.29325 28.874 7.69945 28.874 9.3358C28.874 11.4251 29.4749 13.2074 30.6766 14.683C31.8784 16.1587 33.7028 17.4079 36.1499 18.4305C37.1113 18.825 38.0072 19.2122 38.8374 19.592C39.6677 19.9719 40.3851 20.3664 40.9896 20.7755C41.5941 21.1846 42.071 21.6302 42.4205 22.1123C42.7705 22.5944 42.945 23.1423 42.945 23.7559C42.945 24.209 42.836 24.629 42.6175 25.016C42.399 25.403 42.0675 25.739 41.6233 26.024C41.179 26.309 40.6255 26.532 39.9627 26.6925C39.2999 26.853 38.5243 26.9335 37.6357 26.9335C36.1208 26.9335 34.6205 26.667 33.1347 26.1335C31.6489 25.6005 30.2724 24.8005 29.0051 23.734ZM17.2253 6.2772H26.374V0.5H0.874023V6.2772H9.97797V32H17.2253V6.2772Z" fill="white"/>
</svg>
